# xmcd
#
# Track frame offsets: 
#        187
#        22197
#        35262
#        51129
#        68192
#        88097
#        107164
#        122634
#        145192
#        159787
#
# Disc length: 2374 seconds
#
# Revision: 6
# Processed by: cddbd v1.5.2PL0 Copyright (c) Steve Scherf et al.
# Submitted via: ExactAudioCopy v0.99pb5
#
DISCID=8109440a
DTITLE=Eric Clapton - 461 Ocean Boulevard
DYEAR=1974
DGENRE=Rock
TTITLE0=Motherless Children
TTITLE1=Give Me Strength
TTITLE2=Willie And The Hand Jive
TTITLE3=Get Ready (With Yvonne Elliman)
TTITLE4=I Shot The Sheriff
TTITLE5=I Can't Hold Out
TTITLE6=Please Be With Me
TTITLE7=Let It Grow
TTITLE8=Steady Rollin' Man
TTITLE9=Mainline Florida
EXTD=2008 JP SHM-CD - Universal [UICY-90754] - UPC 4988005501974\n
EXTT0=
EXTT1=
EXTT2=
EXTT3=
EXTT4=
EXTT5=
EXTT6=
EXTT7=
EXTT8=
EXTT9=
PLAYORDER=
